<!DOCTYPE svg PUBLIC "-//W3C//DTD SVG 1.1//EN" "http://www.w3.org/Graphics/SVG/1.1/DTD/svg11.dtd">
<!-- Uploaded to: SVG Repo, www.svgrepo.com, Transformed by: SVG Repo Mixer Tools -->
<svg width="800px" height="800px" viewBox="0 0 1024 1024" class="icon" version="1.1" xmlns="http://www.w3.org/2000/svg" fill="#ffffff" stroke="#ffffff">
<g id="SVGRepo_bgCarrier" stroke-width="0"/>
<g id="SVGRepo_tracerCarrier" stroke-linecap="round" stroke-linejoin="round"/>
<g id="SVGRepo_iconCarrier">
<path d="M951.87 253.86c0-82.18-110.05-144.14-256-144.14s-256 61.96-256 144.14c0 0.73 0.16 1.42 0.18 2.14h-0.18v109.71h73.14v-9.06c45.77 25.81 109.81 41.33 182.86 41.33 67.39 0 126.93-13.33 171.71-35.64 6.94 7.18 11.15 14.32 11.15 20.58 0 28.25-72.93 70.98-182.86 70.98h-73.12v73.14h73.12c67.4 0 126.96-13.33 171.74-35.65 6.95 7.17 11.11 14.31 11.11 20.6 0 28.27-72.93 71-182.86 71l-25.89 0.12c-15.91 0.14-31.32 0.29-46.34-0.11l-1.79 73.11c8.04 0.2 16.18 0.27 24.48 0.27 7.93 0 16-0.05 24.2-0.12l25.34-0.12c67.44 0 127.02-13.35 171.81-35.69 6.97 7.23 11.04 14.41 11.04 20.62 0 28.27-72.93 71-182.86 71h-73.12v73.14h73.12c67.44 0 127.01-13.35 171.81-35.69 6.98 7.22 11.05 14.4 11.05 20.62 0 28.27-72.93 71-182.86 71h-73.12v73.14h73.12c145.95 0 256-61.96 256-144.14 0-0.68-0.09-1.45-0.11-2.14h0.11V256h-0.18c0.03-0.72 0.2-1.42 0.2-2.14z m-438.86 0c0-28.27 72.93-71 182.86-71s182.86 42.73 182.86 71c0 28.25-72.93 70.98-182.86 70.98s-182.86-42.73-182.86-70.98z" fill="#ffffff"/>
<path d="M330.15 365.71c-145.95 0-256 61.96-256 144.14 0 0.73 0.16 1.42 0.18 2.14h-0.18v256c0 82.18 110.05 144.14 256 144.14s256-61.96 256-144.14V512h-0.18c0.02-0.72 0.18-1.42 0.18-2.14 0-82.18-110.05-144.15-256-144.15zM147.29 638.93c0-6.32 4.13-13.45 11.08-20.62 44.79 22.33 104.36 35.67 171.78 35.67 67.39 0 126.93-13.33 171.71-35.64 6.94 7.18 11.15 14.32 11.15 20.58 0 28.25-72.93 70.98-182.86 70.98s-182.86-42.72-182.86-70.97z m182.86-200.07c109.93 0 182.86 42.73 182.86 71 0 28.25-72.93 70.98-182.86 70.98s-182.86-42.73-182.86-70.98c0-28.27 72.93-71 182.86-71z m0 400.14c-109.93 0-182.86-42.73-182.86-71 0-6.29 4.17-13.43 11.11-20.6 44.79 22.32 104.34 35.66 171.75 35.66 67.4 0 126.96-13.33 171.74-35.65 6.95 7.17 11.11 14.31 11.11 20.6 0.01 28.26-72.92 70.99-182.85 70.99z" fill="#ffffff"/>
</g>
</svg>