<!DOCTYPE svg PUBLIC "-//W3C//DTD SVG 1.1//EN" "http://www.w3.org/Graphics/SVG/1.1/DTD/svg11.dtd">

<!-- Uploaded to: SVG Repo, www.svgrepo.com, Transformed by: SVG Repo Mixer Tools -->
<svg fill="#ffffff" height="800px" width="800px" version="1.1" id="Layer_1" xmlns="http://www.w3.org/2000/svg" xmlns:xlink="http://www.w3.org/1999/xlink" viewBox="0 0 320.783 320.783" xml:space="preserve" stroke="#ffffff">

<g id="SVGRepo_bgCarrier" stroke-width="0"/>

<g id="SVGRepo_tracerCarrier" stroke-linecap="round" stroke-linejoin="round"/>

<g id="SVGRepo_iconCarrier"> <g id="XMLID_169_"> <path id="XMLID_197_" d="M0,160.394c0,63.779,37.771,121.495,96.225,147.036c1.955,0.854,3.993,1.259,5.998,1.259 c5.781,0,11.291-3.362,13.754-8.998c3.316-7.591-0.148-16.434-7.74-19.751C60.71,259.173,30,212.248,30,160.394 c0-41.065,19.272-79.024,50.892-103.363l-3.853,19.087C75.4,84.238,80.654,92.15,88.775,93.789 c1.002,0.202,1.999,0.299,2.982,0.299c6.994,0,13.252-4.916,14.688-12.035l10.492-51.985c0.008-0.038,0.01-0.076,0.017-0.114 c0.064-0.326,0.106-0.655,0.148-0.985c0.021-0.164,0.051-0.328,0.066-0.492c0.029-0.321,0.037-0.645,0.046-0.969 c0.005-0.173,0.021-0.347,0.019-0.519c-0.002-0.275-0.025-0.551-0.043-0.827c-0.014-0.218-0.018-0.439-0.04-0.655 c-0.022-0.205-0.063-0.411-0.095-0.616c-0.042-0.285-0.078-0.572-0.137-0.852c-0.033-0.157-0.082-0.311-0.12-0.468 c-0.079-0.327-0.158-0.654-0.259-0.974c-0.047-0.146-0.106-0.289-0.157-0.434c-0.114-0.325-0.229-0.649-0.365-0.965 c-0.015-0.034-0.023-0.069-0.038-0.103c-0.063-0.142-0.14-0.271-0.205-0.41c-0.129-0.271-0.257-0.542-0.401-0.805 c-0.116-0.213-0.244-0.415-0.37-0.62c-0.126-0.205-0.25-0.411-0.385-0.61c-0.154-0.225-0.317-0.44-0.482-0.655 c-0.128-0.168-0.255-0.337-0.391-0.5c-0.177-0.212-0.361-0.413-0.549-0.614c-0.147-0.157-0.291-0.314-0.444-0.465 c-0.185-0.181-0.375-0.353-0.567-0.524c-0.177-0.157-0.354-0.313-0.537-0.461c-0.181-0.146-0.366-0.282-0.553-0.418 c-0.211-0.156-0.424-0.309-0.645-0.453c-0.175-0.115-0.354-0.221-0.534-0.328c-0.239-0.143-0.479-0.284-0.728-0.413 c-0.186-0.097-0.375-0.184-0.563-0.273c-0.247-0.116-0.493-0.232-0.748-0.335c-0.224-0.09-0.45-0.168-0.677-0.248 c-0.227-0.079-0.45-0.161-0.682-0.23c-0.291-0.087-0.588-0.156-0.885-0.226c-0.146-0.034-0.285-0.08-0.432-0.11L53.219,1.904 C45.094,0.263,37.187,5.52,35.547,13.64c-1.639,8.121,3.615,16.032,11.736,17.671l14.125,2.851C23.217,64.129,0,110.395,0,160.394z "/> <path id="XMLID_221_" d="M134.611,200.236c-2.365-2.459-4.406-4.583-7.492-4.583c-5.321,0-9.607,5.97-9.607,10.913 c0,9.208,14.432,22.474,37.379,24.035v6.415c0,4.16,3.725,7.544,8.301,7.544c3.926,0,8.301-3.098,8.301-7.544v-7.418 c20.253-3.946,31.779-18.368,31.779-40.044c0-28.278-19.394-37.251-31.779-41.864v-39.142c5.912,0.906,9.754,2.864,12.703,4.367 c2.334,1.19,4.179,2.13,6.287,2.13c5.839,0,9.424-6.36,9.424-10.92c0-9.333-15.804-13.942-28.414-15.132v-5.211 c0-4.454-4.375-7.558-8.301-7.558c-4.576,0-8.301,3.39-8.301,7.558v5.689c-21.678,2.715-34.016,15.599-34.016,35.781 c0,25.371,18.472,32.672,34.016,38.164v47.286C143.41,209.39,138.189,203.958,134.611,200.236z M170.936,169.859 c7.915,4.266,12.373,9.831,12.373,20.818c0,9.952-4.058,16.171-12.373,18.889V169.859z M140.648,124.134 c0-8.345,4.915-13.469,14.625-15.271v33.046C146.482,138.342,140.648,134.048,140.648,124.134z"/> <path id="XMLID_225_" d="M212.547,40.847c47.526,20.768,78.236,67.693,78.236,119.547c0,41.061-19.269,79.016-50.881,103.355 l3.852-19.081c1.64-8.121-3.614-16.032-11.735-17.672c-8.121-1.64-16.032,3.616-17.671,11.735l-10.494,51.984 c-0.007,0.036-0.01,0.072-0.017,0.108c-0.063,0.32-0.104,0.643-0.145,0.968c-0.02,0.156-0.048,0.311-0.064,0.467 c-0.034,0.354-0.046,0.712-0.055,1.07c-0.003,0.128-0.014,0.255-0.014,0.382c0,0.363,0.024,0.728,0.052,1.092 c0.009,0.124,0.01,0.248,0.023,0.372c0.033,0.333,0.089,0.666,0.145,0.999c0.026,0.156,0.045,0.314,0.076,0.469 c0.057,0.28,0.133,0.557,0.206,0.835c0.055,0.209,0.104,0.42,0.167,0.626c0.07,0.229,0.158,0.455,0.241,0.683 c0.091,0.25,0.178,0.5,0.281,0.745c0.022,0.053,0.038,0.106,0.06,0.159c0.151,0.347,0.316,0.685,0.489,1.014 c0,0.001,0.001,0.001,0.001,0.003c0.217,0.41,0.455,0.802,0.704,1.184c0.02,0.03,0.035,0.062,0.055,0.092 c0.034,0.051,0.074,0.097,0.109,0.148c0.217,0.319,0.444,0.627,0.684,0.926c0.05,0.064,0.1,0.127,0.15,0.189 c0.592,0.715,1.241,1.365,1.941,1.949c0.063,0.052,0.127,0.102,0.189,0.153c0.298,0.239,0.603,0.467,0.916,0.682 c0.072,0.05,0.144,0.102,0.217,0.15c0.375,0.248,0.757,0.482,1.15,0.695c0.041,0.022,0.084,0.04,0.124,0.062 c0.348,0.183,0.702,0.351,1.061,0.507c0.117,0.05,0.235,0.099,0.354,0.146c0.33,0.133,0.665,0.254,1.004,0.364 c0.086,0.028,0.17,0.059,0.256,0.086c0.428,0.129,0.86,0.238,1.298,0.329c0.025,0.005,0.049,0.014,0.074,0.019l51.986,10.493 c1.002,0.202,2,0.299,2.983,0.299c6.993,0,13.251-4.917,14.688-12.035c1.64-8.121-3.615-16.032-11.735-17.671l-14.131-2.852 c38.188-29.966,61.403-76.23,61.403-126.227c0-63.779-37.771-121.494-96.225-147.037c-7.589-3.317-16.434,0.147-19.751,7.739 S204.955,37.53,212.547,40.847z"/> </g> </g>

</svg>