<!DOCTYPE svg PUBLIC "-//W3C//DTD SVG 1.1//EN" "http://www.w3.org/Graphics/SVG/1.1/DTD/svg11.dtd">
<!-- Uploaded to: SVG Repo, www.svgrepo.com, Transformed by: SVG Repo Mixer Tools -->
<svg fill="#ffffff" height="800px" width="800px" version="1.1" id="Capa_1" xmlns="http://www.w3.org/2000/svg" xmlns:xlink="http://www.w3.org/1999/xlink" viewBox="0 0 486.679 486.679" xml:space="preserve" stroke="#ffffff">
<g id="SVGRepo_bgCarrier" stroke-width="0"/>
<g id="SVGRepo_tracerCarrier" stroke-linecap="round" stroke-linejoin="round"/>
<g id="SVGRepo_iconCarrier"> <g> <path d="M315.554,182.54c9.3-5.4,24.3-5.4,33.6,0c9.3,5.4,9.4,14.1,0.1,19.5c-9.2,5.4-24.3,5.4-33.6,0 S306.254,187.94,315.554,182.54z M138.454,99.74c9.3,5.4,24.4,5.4,33.6,0c9.3-5.4,9.2-14.1-0.1-19.5s-24.4-5.4-33.7,0 C129.054,85.64,129.154,94.34,138.454,99.74z M12.254,89.84l142.1-82.6c15.2-8.9,40.1-8.9,55.5,0l265.3,153.1 c15.3,8.9,15.4,23.3,0.1,32.1l-142.1,82.6c-15.2,8.9-40.1,8.9-55.4,0l-265.3-153.1C-2.846,113.04-2.946,98.64,12.254,89.84z M70.254,121.94c-1.8,1-3.6,1.9-5.6,2.7l205.9,118.9c1-0.7,2.1-1.5,3.2-2.2c15.4-9,40.6-9,56.1,0c2.4,1.4,4.4,2.9,6.1,4.5 l85.7-49.8c-2.8-1-5.4-2.1-7.8-3.5c-15.6-9-15.6-23.5-0.2-32.5c2.4-1.4,4.9-2.5,7.7-3.5l-206.5-119.2c-1.3,1.2-2.9,2.2-4.6,3.3 c-15.4,9-40.6,9-56.1,0c-1.7-1-3.2-2-4.5-3.1l-85,49.3c1.8,0.8,3.7,1.6,5.4,2.6C85.554,98.44,85.654,113.04,70.254,121.94z M4.954,166.64l277.9,160.4l3.9,2.3l5.6,3.2c7.8,4.5,20.5,4.5,28.3,0l159.3-92.6c6.5-3.8,6.5-9.9-0.1-13.7 c-6.5-3.8-17.1-3.8-23.6,0l-149.8,87.1l-277.2-160.1c-6.4-3.7-17-4.2-23.7-0.8C-1.646,156.24-1.846,162.64,4.954,166.64z M480.254,276.34c-6.6-3.8-17.2-3.8-23.7,0l-149.9,87.1l-277.2-160.1c-6.4-3.7-17-4.3-23.7-0.8c-7.2,3.8-7.3,10.1-0.6,14.1 l277.9,160.4l4,2.3l5.6,3.2c7.8,4.5,20.5,4.5,28.3,0l159.4-92.5C486.854,286.24,486.754,280.14,480.254,276.34z M4.954,266.74 l277.9,160.4l3.9,2.3l5.6,3.2c7.8,4.5,20.5,4.5,28.3,0l159.3-92.6c6.5-3.8,6.5-9.9-0.1-13.7c-6.5-3.8-17.1-3.8-23.6,0l-149.9,87.1 l-277.1-160c-6.4-3.7-17-4.2-23.7-0.8C-1.646,256.44-1.846,262.84,4.954,266.74z M480.254,376.44c-6.6-3.8-17.2-3.8-23.7,0 l-149.9,87.1l-277.2-160c-6.4-3.7-17-4.3-23.7-0.8c-7.2,3.8-7.3,10.1-0.6,14.1l277.9,160.4l4,2.3l5.6,3.2c7.8,4.5,20.5,4.5,28.3,0 l159.4-92.6C486.854,386.34,486.754,380.24,480.254,376.44z M182.854,105.94c33.4-19.4,87.9-19.4,121.5,0s33.8,51,0.4,70.4 s-87.9,19.4-121.6,0C149.654,156.94,149.454,125.34,182.854,105.94z M252.054,131.04l-16-9.3c-4.7,1.8-9.4,4.1-14,6.7 c-4.6,2.7-8.5,5.4-11.6,8.2l16,9.3L252.054,131.04z M235.554,151.24l16,9.3c4.7-1.8,9.4-4,14-6.7s8.4-5.4,11.6-8.2l-16-9.3 L235.554,151.24z M203.854,143.34c-6.3,7.8-7.8,15.1-7.8,20.2l21.3-12.4L203.854,143.34z M205.154,168.84c8.8,0,21.4-0.9,35-4.6 l-13.6-7.8L205.154,168.84z M261.754,176.74l-12-6.9c-10.4,3.2-20.5,4.9-29.4,5.8C233.554,178.64,248.154,179.04,261.754,176.74z M300.154,158.84l-13.6-7.9c-3.4,2.7-7.2,5.4-11.8,8c-4.6,2.7-9.2,4.9-13.8,6.8l13.6,7.9c5.3-1.6,10.3-3.8,14.7-6.3 C293.754,164.74,297.354,161.84,300.154,158.84z M293.454,144.44l12,6.9c3.8-7.8,3-16.3-2.2-23.9 C301.754,132.54,298.954,138.34,293.454,144.44z M291.554,118.74l-21.3,12.4l13.5,7.8 C290.054,131.04,291.554,123.84,291.554,118.74z M282.454,113.34c-8.8,0-21.4,0.9-35,4.6l13.6,7.8L282.454,113.34z M225.954,105.44 l12,6.9c10.4-3.2,20.5-4.9,29.3-5.7C254.054,103.64,239.454,103.24,225.954,105.44z M187.454,123.44l13.7,7.9 c3.3-2.7,7.2-5.4,11.8-8c4.5-2.6,9.2-4.9,13.8-6.8l-13.7-7.9c-5.2,1.7-10.2,3.8-14.7,6.4 C193.954,117.44,190.354,120.34,187.454,123.44z M184.354,154.84c1.4-5.1,4.4-11,9.9-17l-12-6.9 C178.354,138.74,179.054,147.24,184.354,154.84z"/> </g> </g>
</svg>